Title                            : I Spit on Your Grave
Year                             : 2010
Genre                            : Crime | Horror | Thriller
iMDB URL                         : http://www.imdb.com/title/tt1242432/

Complete name                    : I.Spit.on.Your.Grave.2010.BRRIP.720P.H264-ZEKTORM.mp4
Format                           : MPEG-4
Format profile                   : Base Media
Codec ID                         : isom
File size                        : 2.34 GiB
Duration                         : 1h 48mn (Unrated)
Overall bit rate                 : 3100 Kbps
Subtitles                        : English (Format: srt)

Video
ID                               : 1
Format                           : AVC
Format/Info                      : Advanced Video Codec
Format profile                   : High@L4.0
Format settings, CABAC           : Yes
Format settings, ReFrames        : 12 frames
Codec ID                         : avc1
Codec ID/Info                    : Advanced Video Coding
Duration                         : 1h 48mn
Bit rate mode                    : Variable
Bit rate                         : 2888 Kbps
Width                            : 1280 pixels
Height                           : 544 pixels
Display aspect ratio             : 2.35
Frame rate mode                  : Constant
Frame rate                       : 23.976 fps
Resolution                       : 24 bits
Colorimetry                      : 4:2:0
Scan type                        : Progressive
Bits/(Pixel*Frame)               : 0.173
Stream size                      : 2.18 GiB (93%)
Title                            : Video
Writing library                  : x264

Audio
ID                               : 2
Format                           : AAC
Format/Info                      : Advanced Audio Codec
Format version                   : Version 4
Format profile                   : LC
Format settings, SBR             : Yes
Format settings, PS              : No
Codec ID                         : 40
Duration                         : 1h 48mn
Bit rate mode                    : Variable
Bit rate                         : 209 Kbps
Maximum bit rate                 : 258 Kbps
Channel(s)                       : 6 channels
Channel positions                : Front: L C R, Rear: L R, LFE
Sampling rate                    : 48.0 KHz
Resolution                       : 16 bits
Stream size                      : 162 MiB (7%)
Language                         : English



Screenshots:
 
http://img233.imageshack.us/img233/1199/snapisoyg1.png
 
http://img201.imageshack.us/img201/4658/snapisoyg2.png
 
http://img39.imageshack.us/img39/9154/snapisoyg3.png
 
http://img683.imageshack.us/img683/8882/snapisoyg4.png
 
http://img200.imageshack.us/img200/5021/snapisoyg5.png
